<?xml version="1.0" encoding="UTF-8" standalone="no"?>
<!DOCTYPE svg PUBLIC "-//W3C//DTD SVG 1.1//EN" "http://www.w3.org/Graphics/SVG/1.1/DTD/svg11.dtd">
<svg version="1.1" xmlns="http://www.w3.org/2000/svg" xmlns:xlink="http://www.w3.org/1999/xlink" preserveAspectRatio="xMidYMid meet" viewBox="0 0 480 480" width="480" height="480"><defs><path d="M170.57 -52.41L209.66 -52.41L209.66 -36.32L170.57 -36.32L170.57 -52.41Z" id="a1lrSzDJL"></path><path d="M425.36 241.9C404.6 370.47 370.93 425.81 324.35 407.91C254.47 381.07 224.21 83.79 147.79 69.74C96.85 60.37 62.59 121.59 45.02 253.42" id="djt6zvwh6"></path><path d="M433.27 248.81L37.12 248.81" id="a4SrCm9xh"></path><path d="M431.63 248.75L382.44 248.75C367.66 305.55 353.02 333.95 338.52 333.95C324.03 333.95 307.93 305.55 290.21 248.75L243.66 248.75L191.17 248.75C173.06 180.24 156 145.98 140.01 145.98C124.02 145.98 107.62 180.24 90.82 248.75L35.48 248.75" id="ca4w1lnJD"></path></defs><g><g><g><use xlink:href="#a1lrSzDJL" opacity="1" fill="#f6f4df" fill-opacity="1"></use></g><g><g><use xlink:href="#djt6zvwh6" opacity="1" fill-opacity="0" stroke="#4065c9" stroke-width="13" stroke-opacity="1"></use></g></g><g><g><use xlink:href="#a4SrCm9xh" opacity="1" fill-opacity="0" stroke="#e4d252" stroke-width="13" stroke-opacity="1"></use></g></g><g><g><use xlink:href="#ca4w1lnJD" opacity="1" fill-opacity="0" stroke="#cc5637" stroke-width="13" stroke-opacity="1"></use></g></g></g></g></svg>